<?xml version="1.0" standalone="no"?>
<!DOCTYPE svg PUBLIC "-//W3C//DTD SVG 20010904//EN"
 "http://www.w3.org/TR/2001/REC-SVG-20010904/DTD/svg10.dtd">
<svg version="1.0" xmlns="http://www.w3.org/2000/svg"
 width="528.000000pt" height="560.000000pt" viewBox="0 0 528.000000 560.000000"
 preserveAspectRatio="xMidYMid meet">

<g transform="translate(0.000000,560.000000) scale(0.100000,-0.100000)"
fill="#000000" stroke="none">
<path d="M3036 4896 c-24 -86 -88 -219 -132 -273 -40 -48 -123 -115 -209 -166
l-57 -35 42 -22 42 -21 52 34 c158 106 243 243 276 450 16 99 8 117 -14 33z"/>
<path d="M2118 4086 c-43 -13 -79 -22 -81 -20 -2 2 -38 -25 -80 -61 -78 -67
-171 -169 -226 -248 -18 -26 -35 -47 -40 -47 -4 0 -25 -15 -47 -33 -32 -28
-50 -35 -100 -40 -98 -10 -164 -48 -164 -94 0 -39 41 -57 115 -50 l65 6 0 -64
c0 -36 -7 -109 -16 -163 -18 -101 -24 -416 -9 -461 7 -22 5 -24 -21 -18 -16 3
-37 9 -46 12 -25 10 -24 -13 13 -174 26 -115 31 -160 33 -291 2 -142 6 -166
39 -290 47 -178 85 -259 156 -334 32 -34 77 -90 100 -126 71 -108 159 -164
301 -193 30 -5 69 -21 85 -33 44 -33 150 -80 225 -101 50 -14 103 -18 230 -18
142 0 176 3 243 23 84 24 164 60 212 97 17 12 50 26 75 30 139 24 238 84 306
189 26 39 73 98 104 132 72 75 110 155 157 334 33 124 36 148 39 290 1 125 7
176 27 265 15 61 30 135 35 166 l9 56 -41 -18 c-73 -33 -72 -33 -64 94 5 63 4
165 -2 235 -5 68 -10 128 -11 135 0 7 -4 3 -8 -8 -5 -11 -16 -110 -25 -220
-10 -110 -20 -215 -22 -233 -9 -62 -106 -142 -171 -142 -47 1 -104 34 -193
114 -47 42 -108 87 -136 101 -56 27 -197 55 -275 55 l-48 0 9 30 9 30 -239 0
-239 0 9 -30 c8 -30 8 -30 -29 -30 -69 0 -212 -30 -265 -55 -28 -14 -89 -59
-136 -101 -89 -80 -146 -113 -193 -114 -65 0 -162 80 -171 142 -4 28 -23 235
-43 473 l-5 60 39 -80 c69 -139 179 -238 298 -270 152 -39 306 0 432 111 92
80 150 197 174 351 12 77 14 81 46 97 74 35 203 7 203 -44 0 -52 34 -182 65
-248 78 -166 257 -282 435 -282 198 1 353 127 446 365 11 28 12 33 13 97 l1
57 65 -6 c75 -7 115 11 115 52 0 46 -101 95 -197 95 -24 0 -43 4 -43 9 0 18
-69 63 -111 72 -23 5 -55 21 -73 34 -18 13 -59 37 -92 52 -51 23 -72 27 -159
27 -110 1 -187 -21 -250 -69 -22 -16 -47 -25 -70 -25 -52 0 -103 -25 -123 -60
-11 -19 -22 -28 -32 -24 -62 23 -158 23 -220 0 -10 -4 -21 5 -32 24 -19 33
-70 60 -114 60 -15 0 -42 12 -61 26 -63 48 -137 69 -248 68 -94 0 -105 -2
-175 -35 -41 -20 -81 -43 -89 -52 -14 -17 -51 -24 -51 -9 0 11 183 189 235
229 22 17 80 56 129 87 50 31 86 56 80 55 -5 0 -44 -11 -86 -23z m240 -508 c7
-7 12 -16 12 -20 0 -4 -143 -8 -317 -8 -214 1 -312 4 -301 10 44 26 582 42
606 18z m1042 2 c205 -20 152 -29 -172 -29 -268 -1 -318 1 -318 13 0 8 6 17
13 19 21 9 378 7 477 -3z m-730 -895 c9 -8 73 -24 145 -35 72 -12 131 -23 133
-24 8 -9 -14 -39 -39 -51 -22 -12 -76 -15 -259 -15 -183 0 -237 3 -259 15 -25
12 -47 42 -39 51 2 1 62 12 133 24 75 12 136 27 145 35 18 18 20 18 40 0z
m406 -136 c27 -52 33 -108 18 -158 -27 -92 -100 -164 -200 -196 l-52 -17 -42
31 c-84 61 -215 62 -298 1 -33 -24 -45 -27 -73 -21 -131 31 -233 145 -231 259
0 43 39 136 56 134 5 0 16 -20 24 -43 32 -95 104 -176 198 -224 54 -27 68 -30
159 -30 88 0 107 3 157 27 104 48 186 144 219 256 12 41 13 42 32 25 10 -10
25 -30 33 -44z"/>
<path d="M3290 4026 c0 -2 8 -10 18 -17 15 -13 16 -12 3 4 -13 16 -21 21 -21
13z"/>
</g>
</svg>
